# xmcd
#
# Track frame offsets:
#	150
#	23821
#	39534
#	59046
#	76616
#	99918
#	117635
#	136678
#	156396
#	180067
#	195780
#	215292
#	232862
#	256164
#	273881
#	292924
#
# Disc length: 4168 seconds
#
# Revision: 1
# Processed by: cddbd v1.5.2PL0 Copyright (c) Steve Scherf et al.
# Submitted via: audiograbber 1.83.01
#
DISCID=c3104610
DTITLE=Various Artist - Karaoke Party R&B Hits (2004
DYEAR=2004
DGENRE=Karaoke
TTITLE0=Nelly - Air Force Ones
TTITLE1=Jennifer Lopez - Jenny From the Block
TTITLE2=Eve feat. Alicia Keys - Gangsta Lovin'
TTITLE3=Cam'Ron feat. Juelz Santana - Hey Ma
TTITLE4=Nelly feat. Kelly Rowland - Dilemma
TTITLE5=TLC - Girl Talk
TTITLE6=Beyonce feat. Jay-Z - Crazy in Love
TTITLE7=Destiny's Child - Survivor
TTITLE8=Nelly - Air Force Ones (Vocal Version)
TTITLE9=Jennifer Lopez - Jenny From the Block (Vocal Version)
TTITLE10=Eve feat. Alicia Keys - Gangsta Lovin' (Vocal Version)
TTITLE11=Cam'Ron feat. Juelz Santana - Hey Ma (Vocal Version)
TTITLE12=Nelly feat. Kelly Rowland - Dilemma (Vocal Version)
TTITLE13=TLC - Girl Talk (Vocal Version)
TTITLE14=Beyonce feat. Jay-Z - Crazy in Love (Vocal Version)
TTITLE15=Destiny's Child - Survivor (Vocal Version)
EXTD=
EXTT0=
EXTT1=
EXTT2=
EXTT3=
EXTT4=
EXTT5=
EXTT6=
EXTT7=
EXTT8=
EXTT9=
EXTT10=
EXTT11=
EXTT12=
EXTT13=
EXTT14=
EXTT15=
PLAYORDER=
